HIERARCHY
ROOT Hips
{
	OFFSET -3.958830 18.904000 13.208200
	CHANNELS 6 Xposition Yposition Zposition Zrotation Yrotation Xrotation 
	JOINT LHipJoint
	{
		OFFSET 0.000000 0.000000 0.000000
		CHANNELS 3 Zrotation Yrotation Xrotation
		JOINT LeftUpLeg
		{
			OFFSET 1.800000 -1.400000 0.085000
			CHANNELS 3 Zrotation Yrotation Xrotation
			JOINT LeftLeg
			{
				OFFSET 2.215000 -6.000000 0.000000
				CHANNELS 3 Zrotation Yrotation Xrotation
				JOINT LeftFoot
				{
					OFFSET 2.500000 -6.900000 0.000000
					CHANNELS 3 Zrotation Yrotation Xrotation
					JOINT LeftToeBase
					{
						OFFSET 0.200000 -0.500000 1.950000
						CHANNELS 3 Zrotation Yrotation Xrotation
						End Site
						{
							OFFSET 0.000000 0.000000 0.000000
						}
					}
				}
			}
		}
	}
	JOINT RHipJoint
	{
		OFFSET 0.000000 0.000000 0.000000
		CHANNELS 3 Zrotation Yrotation Xrotation
		JOINT RightUpLeg
		{
			OFFSET -1.800000 -1.400000 0.085000
			CHANNELS 3 Zrotation Yrotation Xrotation
			JOINT RightLeg
			{
				OFFSET -2.215000 -6.000000 0.000000
				CHANNELS 3 Zrotation Yrotation Xrotation
				JOINT RightFoot
				{
					OFFSET -2.500000 -6.900000 0.000000
					CHANNELS 3 Zrotation Yrotation Xrotation
					JOINT RightToeBase
					{
						OFFSET -0.200000 -0.500000 1.950000
						CHANNELS 3 Zrotation Yrotation Xrotation
						End Site
						{
							OFFSET 0.000000 0.000000 0.000000
						}
					}
				}
			}
		}
	}
	JOINT LowerBack
	{
		OFFSET 0.000000 0.000000 0.000000
		CHANNELS 3 Zrotation Yrotation Xrotation
		JOINT Spine
		{
			OFFSET -0.087000 1.940000 -0.288900
			CHANNELS 3 Zrotation Yrotation Xrotation
			JOINT Spine1
			{
				OFFSET 0.000000 1.950000 0.060000
				CHANNELS 3 Zrotation Yrotation Xrotation
				JOINT Neck
				{
					OFFSET 0.000000 0.000000 0.000000
					CHANNELS 3 Zrotation Yrotation Xrotation
					JOINT Neck1
					{
						OFFSET 0.000000 1.600000 0.340000
						CHANNELS 3 Zrotation Yrotation Xrotation
						JOINT Head
						{
							OFFSET 0.000000 1.667000 -0.240000
							CHANNELS 3 Zrotation Yrotation Xrotation
							End Site
							{
								OFFSET 0.000000 0.000000 0.000000
							}
						}
					}
				}
				JOINT LeftShoulder
				{
					OFFSET 0.000000 0.000000 0.000000
					CHANNELS 3 Zrotation Yrotation Xrotation
					JOINT LeftArm
					{
						OFFSET 2.700000 1.550000 -0.730000
						CHANNELS 3 Zrotation Yrotation Xrotation
						JOINT LeftForeArm
						{
							OFFSET 5.450000 0.000000 0.000000
							CHANNELS 3 Zrotation Yrotation Xrotation
							JOINT LeftHand
							{
								OFFSET 3.450000 0.000000 0.000000
								CHANNELS 3 Zrotation Yrotation Xrotation
								JOINT LeftHandIndex1
								{
									OFFSET 0.750000 0.000000 0.000000
									CHANNELS 3 Zrotation Yrotation Xrotation
									End Site
									{
										OFFSET 0.000000 0.000000 0.000000
									}
								}
							}
						}
					}
				}
				JOINT RightShoulder
				{
					OFFSET 0.000000 0.000000 0.000000
					CHANNELS 3 Zrotation Yrotation Xrotation
					JOINT RightArm
					{
						OFFSET -2.700000 1.550000 -0.730000
						CHANNELS 3 Zrotation Yrotation Xrotation
						JOINT RightForeArm
						{
							OFFSET -5.450000 0.000000 0.000000
							CHANNELS 3 Zrotation Yrotation Xrotation
							JOINT RightHand
							{
								OFFSET -3.450000 0.000000 0.000000
								CHANNELS 3 Zrotation Yrotation Xrotation
								JOINT RightHandIndex1
								{
									OFFSET -0.750000 0.000000 0.000000
									CHANNELS 3 Zrotation Yrotation Xrotation
									End Site
									{
										OFFSET 0.000000 0.000000 0.000000
									}
								}
							}
						}
					}
				}
			}
		}
	}
}
MOTION
Frames: 8
Frame Time: 0.016667
0.009920 17.047680 -1.095040 -1.634673 -4.962740 9.691564 -15.490203 12.859860 2.901128 0.732756 -0.516405 -5.244733 -9.767629 4.214252 -1.402351 -0.439836 4.942798 3.559472 0.136180 -0.266300 -0.093230 18.319836 -9.241575 3.060296 1.148405 5.174785 -33.765641 4.379866 -2.700650 9.476621 0.582552 -2.401508 3.932466 0.208780 1.281340 0.385520 -3.237420 -3.161293 -6.565287 9.539483 -8.112565 -0.396919 -3.597076 -8.416353 4.163160 1.090621 -2.201057 -3.495530 -4.482912 13.268291 12.856032 -4.515670 12.005900 8.249730 -5.343845 15.069621 -0.931599 -46.581782 7.039259 -8.362420 17.218985 -14.381448 -3.080557 -4.962319 3.117297 -0.235630 1.145760 -0.924840 0.427950 4.387616 -16.608646 0.251899 59.850559 -15.164093 -22.023650 11.545149 50.215505 1.064421 1.280184 -2.395804 -0.490520 0.241140 0.115530 -0.122990 
0.003000 17.041310 -1.081540 -1.597683 -5.128538 9.889021 -15.493661 12.842524 2.909248 0.705553 -0.530078 -5.270317 -9.963526 4.209289 -1.577584 -0.448497 4.980079 3.557554 0.123570 -0.275920 -0.106740 18.320431 -9.232280 3.051832 1.286094 5.171252 -33.513651 4.409807 -2.652314 9.104853 0.595765 -2.411637 3.933353 0.217760 1.310330 0.383710 -3.234795 -3.157046 -6.558516 9.537925 -8.151958 -0.533728 -3.607318 -8.446606 4.121546 1.044476 -2.200242 -3.481870 -4.507167 13.464665 12.432059 -4.475170 12.044160 8.355420 -4.812764 15.368393 -0.878293 -46.563748 7.393694 -8.450766 17.985859 -14.060625 -3.089011 -4.999530 3.113670 -0.251710 1.168920 -0.946730 0.428890 3.978335 -16.910099 0.208119 60.108292 -15.401819 -22.387342 10.702952 50.481453 0.738279 1.260088 -2.406501 -0.506480 0.255050 0.126660 -0.120610 
-0.002370 17.026770 -1.056510 -1.512559 -5.468919 10.199776 -15.498027 12.812050 2.935947 0.580929 -0.536374 -5.207823 -10.277671 4.174072 -2.052902 -0.459119 5.038122 3.552604 0.091930 -0.310730 -0.126060 18.320732 -9.216034 3.037658 1.287683 5.124561 -33.115377 4.982448 -2.705667 8.671477 0.609595 -2.450208 3.927248 0.215020 1.345280 0.375300 -3.232404 -3.153038 -6.564296 9.693107 -8.247768 -0.617519 -3.809767 -8.510476 3.911381 1.103529 -2.240545 -3.505072 -4.593318 13.642593 11.771363 -4.536250 12.174820 8.450810 -4.025107 16.005432 -0.840305 -46.199107 8.371726 -8.806598 18.974323 -14.413220 -3.192753 -5.040354 3.097444 -0.259010 1.193930 -0.974790 0.421090 3.102528 -17.571808 0.352672 60.677032 -16.514910 -23.467274 10.444900 52.364250 0.783176 1.208561 -2.441074 -0.536490 0.276340 0.150310 -0.125340 
-0.008060 17.020480 -1.025740 -1.473703 -5.626555 10.433704 -15.493440 12.816308 2.915486 0.458332 -0.481456 -5.060703 -9.792895 4.137497 -2.014189 -0.479460 5.035330 3.576383 0.068000 -0.333390 -0.137360 18.326146 -9.232503 3.031325 1.507625 5.032144 -32.448339 4.926541 -2.564763 7.492309 0.622886 -2.437810 3.953657 0.214600 1.381670 0.364680 -3.248320 -3.127726 -6.552537 10.059065 -8.470794 -0.650265 -4.162359 -8.707327 3.544357 1.208031 -2.278568 -3.357457 -4.655622 13.645897 11.258533 -4.738320 12.279700 8.464730 -3.845130 16.769380 -0.909357 -45.210911 9.947286 -9.315337 20.500438 -15.692980 -3.449203 -5.067168 3.069474 -0.262900 1.219030 -0.992810 0.424420 2.736104 -18.412362 0.412690 60.724619 -18.166869 -24.666400 10.273981 55.055900 0.953587 1.146259 -2.485966 -0.565660 0.308660 0.159490 -0.125530 
-0.011600 17.016540 -0.994330 -1.286479 -5.706457 10.598843 -15.490121 12.805605 2.914406 0.216969 -0.465363 -5.089685 -9.783514 4.141644 -1.925514 -0.498293 5.032366 3.584482 0.093860 -0.307680 -0.105010 18.329319 -9.261111 3.006629 1.455859 4.890992 -31.890461 5.129632 -2.554191 7.101576 0.618304 -2.469140 3.949963 0.241910 1.382600 0.359800 -3.258646 -3.079107 -6.531173 10.144763 -8.657357 -0.754000 -4.459261 -8.868031 3.334774 1.269561 -2.232446 -3.117600 -4.569999 13.610891 10.881402 -4.875550 12.269280 8.153140 -3.623085 17.504847 -0.977550 -44.461578 11.320036 -9.737422 22.225032 -16.939122 -3.742583 -5.078217 3.069746 -0.269430 1.229410 -0.996360 0.429440 2.419575 -19.226245 0.279528 60.690713 -19.223836 -25.467174 8.930472 56.597465 0.529098 1.101958 -2.527099 -0.573490 0.322480 0.140990 -0.134590 
-0.013700 17.016710 -0.961370 -1.107708 -5.416846 10.711942 -15.491148 12.798450 2.932293 0.081430 -0.504549 -5.355388 -10.246607 4.193798 -1.854820 -0.505671 5.067396 3.579014 0.079660 -0.327440 -0.105070 18.325317 -9.286975 2.964565 1.213049 4.711352 -31.331206 5.582353 -2.683753 7.302420 0.618394 -2.552971 3.913596 0.242590 1.399670 0.366590 -3.250264 -3.064185 -6.511218 10.159629 -8.905313 -0.860215 -4.697307 -9.103121 3.104946 1.402616 -2.104178 -2.878734 -4.370659 13.629259 10.595388 -5.108460 12.404840 8.322130 -3.138796 18.316114 -0.992539 -44.348791 12.600030 -10.335127 24.377852 -18.704695 -4.231715 -5.105114 3.087292 -0.282910 1.250550 -1.012760 0.423820 1.719204 -20.220426 0.102108 61.003880 -19.849517 -26.122427 7.126632 57.222557 -0.115486 1.078309 -2.555377 -0.586090 0.319100 0.148090 -0.138550 
-0.015440 17.021220 -0.932040 -0.966273 -5.014107 10.746102 -15.487182 12.833734 2.905778 -0.289072 -0.484986 -5.759792 -9.865683 4.236359 -1.187589 -0.527292 5.012555 3.601976 0.069700 -0.325660 -0.112310 18.321163 -9.334217 2.936903 0.816488 4.516126 -30.910835 6.085678 -2.831078 7.561218 0.620137 -2.644723 3.881334 0.252460 1.421690 0.373510 -3.247732 -3.059120 -6.465399 10.145763 -9.168603 -0.990085 -4.754065 -9.355049 3.039575 1.412090 -1.964937 -2.629685 -4.187531 13.787949 10.409837 -5.331920 12.596670 8.429910 -2.873713 18.822117 -0.907543 -44.441470 13.739376 -10.878865 26.586334 -20.383365 -4.771595 -5.140489 3.102760 -0.315490 1.281350 -1.029520 0.421790 1.498700 -20.897737 -0.253385 61.093738 -19.979395 -26.529472 3.913558 57.120026 -1.430234 1.066885 -2.554500 -0.586990 0.320640 0.153020 -0.133240 
-0.023500 17.030820 -0.909100 -0.995888 -5.055030 10.741059 -15.470740 12.889306 2.854356 -0.619339 -0.480397 -6.385878 -9.172124 4.302875 0.029680 -0.556429 4.887729 3.637820 0.076520 -0.315870 -0.129230 18.325694 -9.397015 2.937702 0.926899 4.457496 -30.629814 6.045192 -2.898374 7.969582 0.617061 -2.665087 3.894016 0.251170 1.418010 0.362520 -3.273494 -3.038488 -6.423128 10.243692 -9.199572 -0.877874 -4.710630 -9.350024 2.669158 1.271523 -2.055175 -2.387720 -4.319060 13.818837 10.495151 -5.039220 12.334650 8.435240 -2.335409 19.510945 -0.875245 -44.766847 14.406749 -11.341425 28.503246 -21.800447 -5.276234 -5.118454 3.111841 -0.307270 1.268650 -1.028560 0.434700 1.230325 -21.494195 -0.581813 61.411884 -19.956639 -26.967738 0.455071 56.536761 -2.743836 1.072679 -2.512341 -0.582860 0.325250 0.148170 -0.126310 
